# xmcd
#
# Track frame offsets: 
#        150
#        19245
#        32030
#        50730
#        66440
#        90907
#        114824
#        143332
#        161539
#        180317
#        200220
#        215810
#        249520
#        270485
#        289980
#        308058
#        327573
#
# Disc length: 4800 seconds
#
# Revision: 2
# Processed by: cddbd v1.5.2PL0 Copyright (c) Steve Scherf et al.
# Submitted via: ExactAudioCopy v1.3
#
DISCID=f712be11
DTITLE=Various Artist - Akella Presents - vol.85 - Blues from 90th  C
DTITLE=D1
DYEAR=2016
DGENRE=Blues
TTITLE0=Steve Bassett - Poor Of Me
TTITLE1=Billy Earl McLelland - Tall Girl in a Short Dress
TTITLE2=Richie Barron - Somebody's Got To You
TTITLE3=Jhonny Charles - You Move Me
TTITLE4=Blistering Blues Band - Help The Poor
TTITLE5=Rhett Tyler and Earl Warning - Sam
TTITLE6=Nasty Ned and He Famous Chilli Dog - Just Like Life
TTITLE7=Kentucky Thunder - Love Is A Gift
TTITLE8=Richard Waters and  Larry Burton - Please Set A Date
TTITLE9=Reddog - Honest Man
TTITLE10=Rocky Shelton - Strength to Stand Alone
TTITLE11=Donnie McCormick - It's A Feeling
TTITLE12=Kenny Lee - Blues Party
TTITLE13=Jonathan Kalb - Shadow Of A Man
TTITLE14=Gator Dogs - Swamp Man
TTITLE15=Anthony Paul - Don't Let The Same Dog Bite You Twice
TTITLE16=Barry Levenson - Cobra Days
EXTD=
EXTT0=
EXTT1=
EXTT2=
EXTT3=
EXTT4=
EXTT5=
EXTT6=
EXTT7=
EXTT8=
EXTT9=
EXTT10=
EXTT11=
EXTT12=
EXTT13=
EXTT14=
EXTT15=
EXTT16=
PLAYORDER=
